<svg xmlns="http://www.w3.org/2000/svg" viewBox="0 0 56 56"><style>.a{fill:#CC4B4C;}.b{fill:#FFF;}</style><path d="M37 0H8C7.2 0 6.5 0.7 6.5 1.9V55c0 0.3 0.7 1 1.5 1h40.1c0.8 0 1.5-0.7 1.5-1V13c0-0.7-0.1-0.9-0.3-1.1L37.6 0.3C37.4 0.1 37.2 0 37 0z" fill="#E9E9E0"/><polygon points="37.5 0.2 37.5 12 49.3 12 " fill="#D9D7CA"/><path d="M19.5 33.3L19.5 33.3c-0.3 0-0.7-0.1-1-0.3 -1-0.8-1.2-1.6-1.1-2.2 0.2-1.6 2.2-3.3 6-5.1 1.5-3.3 2.9-7.4 3.8-10.7 -1-2.2-2-5-1.3-6.6 0.2-0.6 0.6-1 1.1-1.2 0.2-0.1 0.8-0.2 1-0.2 0.5 0 0.9 0.6 1.3 1 0.3 0.4 1 1.2-0.4 6.8 1.3 2.8 3.3 5.6 5.1 7.6 1.3-0.2 2.4-0.4 3.4-0.4 1.6 0 2.5 0.4 2.9 1.1 0.3 0.6 0.2 1.3-0.4 2.2 -0.6 0.8-1.3 1.2-2.2 1.2 -1.2 0-2.6-0.8-4.2-2.3 -2.8 0.6-6.1 1.7-8.8 2.8 -0.8 1.8-1.6 3.2-2.4 4.3C21.3 32.7 20.4 33.3 19.5 33.3zM22.2 28.2c-2.1 1.2-3 2.2-3.1 2.7 0 0.1 0 0.3 0.4 0.7C19.7 31.6 20.6 31.2 22.2 28.2zM35.8 23.8c0.8 0.6 1 0.9 1.5 0.9 0.2 0 0.9 0 1.2-0.4 0.1-0.2 0.2-0.3 0.2-0.4 -0.1-0.1-0.3-0.2-1.2-0.2C37.1 23.6 36.5 23.7 35.8 23.8zM28.3 17.2c-0.7 2.5-1.7 5.1-2.7 7.6 2.1-0.8 4.4-1.5 6.5-2C30.8 21.2 29.5 19.2 28.3 17.2zM27.7 8.7c-0.1 0-1.3 1.8 0.1 3.2C28.8 9.8 27.8 8.7 27.7 8.7z" class="a"/><path d="M48 56H8C7.2 56 6.5 55.3 6.5 54.5V39h43v15.5C49.5 55.3 48.8 56 48 56z" class="a"/><path d="M17.4 53h-1.6V42.9h2.9c0.4 0 0.9 0.1 1.3 0.2 0.4 0.1 0.8 0.3 1.1 0.6 0.3 0.3 0.6 0.6 0.8 1s0.3 0.8 0.3 1.3c0 0.5-0.1 1-0.3 1.4 -0.2 0.4-0.4 0.8-0.7 1 -0.3 0.3-0.7 0.5-1.1 0.7s-0.9 0.2-1.4 0.2h-1.2V53zM17.4 44.2v4h1.5c0.2 0 0.4 0 0.6-0.1 0.2-0.1 0.4-0.2 0.5-0.3 0.2-0.2 0.3-0.4 0.4-0.6 0.1-0.3 0.2-0.6 0.2-1 0-0.2 0-0.4-0.1-0.6 0-0.2-0.1-0.4-0.3-0.6 -0.1-0.2-0.3-0.4-0.6-0.5 -0.3-0.1-0.6-0.2-1-0.2H17.4z" class="b"/><path d="M32.2 47.7c0 0.8-0.1 1.5-0.3 2.1s-0.4 1.1-0.7 1.5 -0.6 0.7-0.9 0.9 -0.7 0.4-1 0.5c-0.3 0.1-0.6 0.2-0.9 0.2C28.2 53 28 53 27.9 53h-3.8V42.9h3c0.8 0 1.6 0.1 2.2 0.4s1.2 0.6 1.6 1.1 0.7 1 1 1.5C32.1 46.5 32.2 47.1 32.2 47.7zM27.4 51.8c1.1 0 1.9-0.4 2.4-1.1s0.7-1.7 0.7-3.1c0-0.4 0-0.8-0.1-1.2 -0.1-0.4-0.3-0.8-0.6-1.1s-0.7-0.6-1.2-0.8 -1.1-0.3-1.9-0.3h-1v7.6H27.4z" class="b"/><path d="M36.3 44.2v3.2h4.2v1.1h-4.2V53h-1.7V42.9H40.9v1.2H36.3z" class="b"/></svg>